<svg width="38" height="36" viewBox="0 0 38 36" fill="none" xmlns="http://www.w3.org/2000/svg">
<path opacity="0.6" d="M6.75 3C3.31302 3 0.5 5.81302 0.5 9.25C0.5 12.1989 2.22618 13.9009 3.33203 15.0996C4.81186 16.7037 6.34325 18.1426 7.48242 19.25L5.24121 21.4912C2.96104 23.7714 2.34999 27.3029 3.83496 29.875C5.24636 32.3196 8.13966 33.5158 10.8662 32.7852C13.5928 32.0546 15.5 29.5728 15.5 26.75C15.5023 26.5844 15.4717 26.4199 15.41 26.2662C15.3482 26.1125 15.2565 25.9726 15.1402 25.8546C15.0239 25.7367 14.8853 25.643 14.7325 25.579C14.5797 25.5151 14.4157 25.4822 14.25 25.4822C14.0843 25.4822 13.9203 25.5151 13.7675 25.579C13.6147 25.643 13.4761 25.7367 13.3598 25.8546C13.2435 25.9726 13.1518 26.1125 13.09 26.2662C13.0283 26.4199 12.9977 26.5844 13 26.75C13 28.4533 11.867 29.9322 10.2217 30.373C8.5764 30.8139 6.8546 30.1001 6.00293 28.625C5.2249 27.2774 5.53896 24.7286 7.00879 23.2588L10.1338 20.1338C10.3681 19.8994 10.4998 19.5815 10.4998 19.25C10.4998 18.9185 10.3681 18.6006 10.1338 18.3662C9.05479 17.2872 6.86382 15.2387 5.16797 13.4004C3.96752 12.0991 3 11.3011 3 9.25C3 7.16412 4.66412 5.5 6.75 5.5C9.66667 5.5 11.8216 8.58914 13.3662 10.1338C13.4814 10.2536 13.6194 10.3493 13.772 10.4152C13.9246 10.481 14.0889 10.5158 14.2551 10.5175C14.4213 10.5191 14.5862 10.4876 14.7401 10.4248C14.894 10.3619 15.0339 10.269 15.1514 10.1514C15.269 10.0339 15.3619 9.89401 15.4248 9.74011C15.4876 9.58621 15.5191 9.42135 15.5175 9.25511C15.5158 9.08888 15.481 8.92465 15.4152 8.77202C15.3493 8.61939 15.2536 8.48142 15.1338 8.36621C14.1784 7.41086 11.3333 3 6.75 3Z" fill="white"/>
<path d="M31.75 2.99997C27.1667 2.99997 24.3216 7.41083 23.3662 8.36618C23.2464 8.48139 23.1507 8.61936 23.0848 8.77199C23.019 8.92462 22.9842 9.08885 22.9825 9.25508C22.9809 9.42132 23.0124 9.58618 23.0752 9.74008C23.1381 9.89398 23.231 10.0338 23.3486 10.1514C23.4661 10.2689 23.606 10.3619 23.7599 10.4247C23.9138 10.4876 24.0787 10.5191 24.2449 10.5174C24.4111 10.5158 24.5754 10.481 24.728 10.4151C24.8806 10.3492 25.0186 10.2536 25.1338 10.1338C26.6784 8.58911 28.8333 5.49997 31.75 5.49997C33.8359 5.49997 35.5 7.16409 35.5 9.24997C35.5 11.301 34.5325 12.0991 33.332 13.4004C31.6362 15.2387 29.4452 17.2872 28.3662 18.3662C28.1319 18.6006 28.0002 18.9185 28.0002 19.25C28.0002 19.5814 28.1319 19.8993 28.3662 20.1338L31.4912 23.2588C32.961 24.7286 33.2751 27.2774 32.4971 28.625C31.6454 30.1001 29.9236 30.8139 28.2783 30.373C26.633 29.9321 25.5 28.4533 25.5 26.75C25.5023 26.5843 25.4717 26.4199 25.41 26.2662C25.3482 26.1125 25.2565 25.9725 25.1402 25.8546C25.0239 25.7366 24.8853 25.6429 24.7325 25.579C24.5797 25.5151 24.4157 25.4822 24.25 25.4822C24.0843 25.4822 23.9203 25.5151 23.7675 25.579C23.6147 25.6429 23.4761 25.7366 23.3598 25.8546C23.2435 25.9725 23.1518 26.1125 23.09 26.2662C23.0283 26.4199 22.9977 26.5843 23 26.75C23 29.5727 24.9072 32.0546 27.6338 32.7851C30.3603 33.5157 33.2536 32.3195 34.665 29.875C36.15 27.3029 35.539 23.7714 33.2588 21.4912L31.0176 19.25C32.1568 18.1426 33.6881 16.7037 35.168 15.0996C36.2738 13.9009 38 12.1989 38 9.24997C38 5.81299 35.187 2.99997 31.75 2.99997ZM20.5 13.0001V8.00012H18V13.0001H20.5ZM20.5 5.50012V0.500122H18V5.50012H20.5ZM20.5 35.5001V30.5001H18V35.5001H20.5ZM20.5 28.0001V23.0001H18V28.0001H20.5ZM20.5 20.5001V15.5001H18V20.5001H20.5Z" fill="white"/>
</svg>
